# xmcd CD database file
#
# Track frame offsets:
#	150
#	22675
#	44575
#
# Disc length: 859 seconds
#
# Revision: 0
# Processed by: cddbd v1.5PL3 Copyright (c) Steve Scherf et al.
# Submitted via: CDex 1.51
#
DISCID=19035903
DTITLE=DOUBLE feat. F.O.H - handle
DYEAR=2000
DGENRE=
TTITLE0=handle
TTITLE1=home
TTITLE2=handle(remix)
EXTD=YEAR: 2000
EXTT0=
EXTT1=
EXTT2=
PLAYORDER=
